<svg width="83" height="20" viewBox="0 0 83 20" fill="none" xmlns="http://www.w3.org/2000/svg">
<path d="M75.681 20C74.3801 20 73.2 19.7086 72.1407 19.1257C71.1 18.5246 70.273 17.6958 69.6597 16.6393C69.0464 15.5647 68.7398 14.3169 68.7398 12.8962C68.7398 11.4754 69.0464 10.2368 69.6597 9.18032C70.2916 8.10564 71.1371 7.27686 72.1965 6.69398C73.2558 6.09289 74.4359 5.79234 75.7368 5.79234C77.0563 5.79234 78.2364 6.09289 79.2771 6.69398C80.3364 7.27686 81.1727 8.09653 81.786 9.153C82.3992 10.2095 82.7059 11.4572 82.7059 12.8962C82.7059 14.3169 82.3899 15.5647 81.7581 16.6393C81.1448 17.6958 80.3085 18.5246 79.2492 19.1257C78.1899 19.7086 77.0005 20 75.681 20ZM75.7089 17.6503C76.4337 17.6503 77.112 17.4772 77.7439 17.1311C78.3757 16.7668 78.8868 16.2295 79.2771 15.5191C79.6673 14.8087 79.8625 13.9344 79.8625 12.8962C79.8625 11.8397 79.6673 10.9654 79.2771 10.2732C78.9054 9.56283 78.4036 9.0346 77.7718 8.68852C77.1399 8.32422 76.4616 8.14207 75.7368 8.14207C75.0306 8.14207 74.3522 8.32422 73.7018 8.68852C73.0699 9.0346 72.5589 9.56283 72.1686 10.2732C71.7969 10.9654 71.6111 11.8397 71.6111 12.8962C71.6111 13.9344 71.7969 14.8087 72.1686 15.5191C72.5589 16.2295 73.0606 16.7668 73.6739 17.1311C74.3058 17.4772 74.9841 17.6503 75.7089 17.6503Z" fill="#E3F0D3"/>
<path d="M58.8479 20C57.4912 20 56.2926 19.6903 55.2518 19.071C54.2297 18.4517 53.4306 17.6047 52.8545 16.5301C52.2784 15.4554 51.9903 14.235 51.9903 12.8689C51.9903 11.5027 52.2784 10.2914 52.8545 9.23497C53.4306 8.16029 54.239 7.3224 55.2797 6.72131C56.3204 6.102 57.5098 5.79235 58.8479 5.79235C59.963 5.79235 60.9386 6.01093 61.7749 6.44809C62.6298 6.86703 63.2896 7.45902 63.7542 8.22404V0H66.5418V19.6721H64.0329L63.7542 17.541C63.4568 17.9599 63.0851 18.3607 62.6391 18.7432C62.1931 19.1075 61.6541 19.408 61.0223 19.6448C60.3904 19.8816 59.6656 20 58.8479 20ZM59.2661 17.623C60.1395 17.623 60.9108 17.4226 61.5798 17.0219C62.2488 16.6211 62.7692 16.0656 63.1409 15.3552C63.5311 14.6448 63.7263 13.8251 63.7263 12.8962C63.7263 11.949 63.5311 11.1293 63.1409 10.4372C62.7692 9.72678 62.2488 9.17122 61.5798 8.77049C60.9108 8.36976 60.1395 8.1694 59.2661 8.1694C58.4112 8.1694 57.6492 8.36976 56.9802 8.77049C56.3111 9.17122 55.7908 9.72678 55.4191 10.4372C55.0474 11.1293 54.8616 11.949 54.8616 12.8962C54.8616 13.8251 55.0474 14.6448 55.4191 15.3552C55.7908 16.0656 56.3111 16.6211 56.9802 17.0219C57.6492 17.4226 58.4112 17.623 59.2661 17.623Z" fill="#E3F0D3"/>
<path d="M27.6449 20C26.2883 20 25.0896 19.7086 24.0489 19.1257C23.0082 18.5246 22.1905 17.6958 21.5958 16.6393C21.0011 15.5829 20.7037 14.3443 20.7037 12.9235C20.7037 11.5027 20.9918 10.2641 21.5679 9.20764C22.1626 8.13296 22.9803 7.29507 24.021 6.69398C25.0803 6.09289 26.3069 5.79234 27.7007 5.79234C29.0574 5.79234 30.2282 6.09289 31.2131 6.69398C32.2167 7.27686 32.9879 8.05099 33.5269 9.01639C34.0658 9.98178 34.3353 11.0565 34.3353 12.2404C34.3353 12.4226 34.3353 12.6229 34.3353 12.8415C34.3353 13.0601 34.326 13.2878 34.3074 13.5246H19V11.612H31.5477C31.4919 10.5191 31.1016 9.65391 30.3768 9.01639C29.6521 8.37886 28.7414 8.0601 27.6449 8.0601C26.9016 8.0601 26.2047 8.22404 25.5542 8.55191C24.9223 8.87978 24.4113 9.36247 24.021 9.99999C23.6307 10.6193 23.4356 11.4117 23.4356 12.377V13.1421C23.4356 14.1439 23.6307 14.9818 24.021 15.6557C24.4113 16.3297 24.9223 16.8488 25.5542 17.2131C26.2047 17.5592 26.9016 17.7322 27.6449 17.7322C28.5184 17.7322 29.2525 17.5319 29.8472 17.1311C30.4419 16.7304 30.8786 16.2022 31.1574 15.5464H33.945C33.7034 16.4025 33.2946 17.1676 32.7185 17.8415C32.1423 18.4973 31.4269 19.0255 30.572 19.4262C29.7171 19.8087 28.7414 20 27.6449 20Z" fill="#E3F0D3"/>
<path d="M24.021 15.6557C23.6815 15.0694 23.4897 14.359 23.4455 13.5246H20.7221C20.7953 14.6964 21.0865 15.7347 21.5958 16.6393L24.021 15.6557Z" fill="url(#paint0_linear_65_58)"/>
<path d="M42.987 20C41.6303 20 40.4316 19.7086 39.3909 19.1257C38.3502 18.5246 37.5325 17.6958 36.9378 16.6393C36.3431 15.5829 36.0457 14.3443 36.0457 12.9235C36.0457 11.5027 36.3338 10.2641 36.9099 9.20764C37.5046 8.13296 38.3223 7.29507 39.363 6.69398C40.4223 6.09289 41.6489 5.79234 43.0427 5.79234C44.3994 5.79234 45.5702 6.09289 46.5552 6.69398C47.5587 7.27686 48.33 8.05099 48.8689 9.01639C49.4079 9.98178 49.6773 11.0565 49.6773 12.2404C49.6773 12.4226 49.6773 12.6229 49.6773 12.8415C49.6773 13.0601 49.668 13.2878 49.6495 13.5246H31V11.612H46.8897C46.8339 10.5191 46.4437 9.65391 45.7189 9.01639C44.9941 8.37886 44.0835 8.0601 42.987 8.0601C42.2436 8.0601 41.5467 8.22404 40.8962 8.55191C40.2644 8.87978 39.7533 9.36247 39.363 9.99999C38.9728 10.6193 38.7776 11.4117 38.7776 12.377V13.1421C38.7776 14.1439 38.9728 14.9818 39.363 15.6557C39.7533 16.3297 40.2644 16.8488 40.8962 17.2131C41.5467 17.5592 42.2436 17.7322 42.987 17.7322C43.8604 17.7322 44.5945 17.5319 45.1892 17.1311C45.7839 16.7304 46.2206 16.2022 46.4994 15.5464H49.2871C49.0455 16.4025 48.6366 17.1676 48.0605 17.8415C47.4844 18.4973 46.7689 19.0255 45.914 19.4262C45.0591 19.8087 44.0835 20 42.987 20Z" fill="#E3F0D3"/>
<path d="M39.363 15.6557C39.0235 15.0694 38.8317 14.359 38.7875 13.5246H36.0642C36.1373 14.6964 36.4285 15.7347 36.9378 16.6393L39.363 15.6557Z" fill="url(#paint1_linear_65_58)"/>
<path d="M14.7005 19.6721V0H17.4881V19.6721H14.7005Z" fill="#E3F0D3"/>
<path d="M8.83684 19.6721L2.34162 12.2131L8.1678 6.12022H11.5409L4.59962 13.2514L4.62749 11.2295L12.3493 19.6721H8.83684ZM0 19.6721V0H2.78765V19.6721H0Z" fill="#E3F0D3"/>
<defs>
<linearGradient id="paint0_linear_65_58" x1="21.9155" y1="13.4107" x2="23.0402" y2="15.7057" gradientUnits="userSpaceOnUse">
<stop stop-color="#212121"/>
<stop offset="1" stop-color="#212121" stop-opacity="0"/>
</linearGradient>
<linearGradient id="paint1_linear_65_58" x1="37.2576" y1="13.4107" x2="38.3822" y2="15.7057" gradientUnits="userSpaceOnUse">
<stop stop-color="#212121"/>
<stop offset="1" stop-color="#212121" stop-opacity="0"/>
</linearGradient>
</defs>
</svg>
