<svg width="48" height="48" viewBox="0 0 48 48" fill="none" xmlns="http://www.w3.org/2000/svg">
<g clip-path="url(#clip0_16_95)">
<rect width="48" height="48" fill="#131313"/>
<path d="M29.5959 37.2666L19.6027 25.7905L28.5666 16.4163H33.7562L23.0767 27.3879L23.1196 24.2772L35 37.2666H29.5959ZM16 37.2666V7H20.2889V37.2666H16Z" fill="#E3F0D3"/>
<g opacity="0.6" filter="url(#filter0_f_16_95)">
<path fill-rule="evenodd" clip-rule="evenodd" d="M46.159 17.5205C38.4418 17.906 34.408 24.8622 29.1318 20.6503C24.1636 16.6842 15.9684 13.3571 16.8101 7.96937C17.644 2.63189 27.1739 1.40333 32.6812 -2.06816C37.3439 -5.00721 40.1358 -9.7721 46.159 -10.5302C52.9416 -11.384 60.176 -9.71379 65.1191 -6.15121C70.1273 -2.54178 72.6605 2.81619 71.8278 7.96937C71.0667 12.6791 65.0726 15.3809 61.0458 19.0563C56.1656 23.5107 53.861 17.1358 46.159 17.5205Z" fill="url(#paint0_linear_16_95)"/>
</g>
<g opacity="0.2" filter="url(#filter1_f_16_95)">
<path fill-rule="evenodd" clip-rule="evenodd" d="M5.91217 31.3653C11.2971 31.8605 14.5658 35.1499 18.6353 37.5984C23.1765 40.3309 41.9682 44.1298 42.1056 48.252C42.2433 52.3844 24.0009 52.7443 19.2253 55.302C15.2307 57.4414 10.9929 59.6386 5.91217 59.4985C0.983151 59.3626 -2.37356 56.5692 -6.36331 54.5965C-11.6921 51.9617 -19.8884 50.6783 -20.8834 46.2496C-21.9046 41.7042 -16.0273 37.8017 -10.7902 34.8927C-6.09676 32.2856 -0.0936316 30.8131 5.91217 31.3653Z" fill="url(#paint1_linear_16_95)"/>
</g>
</g>
<defs>
<filter id="filter0_f_16_95" x="7.06832" y="-20.4317" width="74.5974" height="52.1134" filterUnits="userSpaceOnUse" color-interpolation-filters="sRGB">
<feFlood flood-opacity="0" result="BackgroundImageFix"/>
<feBlend mode="normal" in="SourceGraphic" in2="BackgroundImageFix" result="shape"/>
<feGaussianBlur stdDeviation="4.84084" result="effect1_foregroundBlur_16_95"/>
</filter>
<filter id="filter1_f_16_95" x="-26.3479" y="25.9021" width="73.8022" height="38.9507" filterUnits="userSpaceOnUse" color-interpolation-filters="sRGB">
<feFlood flood-opacity="0" result="BackgroundImageFix"/>
<feBlend mode="normal" in="SourceGraphic" in2="BackgroundImageFix" result="shape"/>
<feGaussianBlur stdDeviation="2.67397" result="effect1_foregroundBlur_16_95"/>
</filter>
<linearGradient id="paint0_linear_16_95" x1="50.4907" y1="2.56231" x2="30.2802" y2="24.6123" gradientUnits="userSpaceOnUse">
<stop stop-color="#EFC5A8"/>
<stop offset="1" stop-color="#7F8960" stop-opacity="0.2"/>
</linearGradient>
<linearGradient id="paint1_linear_16_95" x1="6.45145" y1="47.6461" x2="24.6316" y2="35.31" gradientUnits="userSpaceOnUse">
<stop stop-color="#D2D6DD"/>
<stop offset="1" stop-color="#717377"/>
</linearGradient>
<clipPath id="clip0_16_95">
<rect width="48" height="48" fill="white"/>
</clipPath>
</defs>
</svg>
